2025-03-30 01:13:16,951 - ERROR - Video compilation failed for strawberry-cheesecake-made-with-Voicemod.mp3: ffmpeg version N-55702-g920046a Copyright (c) 2000-2013 the FFmpeg developers
  built on Aug 21 2013 18:10:00 with gcc 4.7.3 (GCC)
  configuration: --disable-static --enable-shared --enable-gpl --enable-version3 --disable-w32threads --enable-avisynth --enable-bzlib --enable-fontconfig --enable-frei0r --enable-gnutls --enable-iconv --enable-libass --enable-libbluray --enable-libcaca --enable-libfreetype --enable-libgsm --enable-libilbc --enable-libmodplug --enable-libmp3lame --enable-libopencore-amrnb --enable-libopencore-amrwb --enable-libopenjpeg --enable-libopus --enable-librtmp --enable-libschroedinger --enable-libsoxr --enable-libspeex --enable-libtheora --enable-libtwolame --enable-libvo-aacenc --enable-libvo-amrwbenc --enable-libvorbis --enable-libvpx --enable-libx264 --enable-libxavs --enable-libxvid --enable-zlib
  libavutil      52. 42.100 / 52. 42.100
  libavcodec     55. 29.100 / 55. 29.100
  libavformat    55. 14.101 / 55. 14.101
  libavdevice    55.  3.100 / 55.  3.100
  libavfilter     3. 82.100 /  3. 82.100
  libswscale      2.  5.100 /  2.  5.100
  libswresample   0. 17.103 /  0. 17.103
  libpostproc    52.  3.100 / 52.  3.100
Input #0, image2, from 'f:\Projects\Visualizer Generator\temp_frames\frame_%05d.png':
  Duration: 00:00:44.80, start: 0.000000, bitrate: N/A
    Stream #0:0: Video: png, rgba, 1920x1080 [SAR 3937:3937 DAR 16:9], 30 fps, 30 tbr, 30 tbn, 30 tbc
[mp3 @ 0000000000f2ba40] Estimating duration from bitrate, this may be inaccurate
Input #1, mp3, from 'f:\Projects\Visualizer Generator\input\strawberry-cheesecake-made-with-Voicemod.mp3':
  Duration: 00:00:44.83, start: 0.000000, bitrate: 128 kb/s
    Stream #1:0: Audio: mp3, 48000 Hz, stereo, s16p, 128 kb/s
[image2 @ 00000000029c10a0] Invalid stream specifier: '1:a'].
    Last message repeated 1 times
Sync stream specification in map ['0:v', '1:a'] does not match any streams.

